# xmcd
#
# Track frame offsets:
# 150
# 21709
# 39595
# 56562
# 73721
# 86879
# 105274
# 121358
# 137569
# 151805
# 171905
# 190892
# 208392
# 226872
# 243941
#
# Disc length: 3478 seconds
#
#
# Revision: 0
# Processed by: cddbd v1.5.2PL0 Copyright (c) Steve Scherf et al.
# Submitted via: FreeRIP 2.21 
#
DISCID=d10d940f
DTITLE=Bruno and Marrone - Inevitável
DYEAR=1900
DGENRE=Country
TTITLE0=Será
TTITLE1=Vai dar namoro
TTITLE2=Deixa
TTITLE3=É você que eu amo
TTITLE4=Pra lá que eu vou
TTITLE5=Sonhos perdidos
TTITLE6=Transito parado
TTITLE7=Doce desejo
TTITLE8=Apaziguar
TTITLE9=Se não tivesse ido
TTITLE10=Você não me ensinou a te esquecer
TTITLE11=Inevitável
TTITLE12=Coração de pedra
TTITLE13=Foi engano
TTITLE14=Ligação urbana
EXTD=
EXTT0=
EXTT1=
EXTT2=
EXTT3=
EXTT4=
EXTT5=
EXTT6=
EXTT7=
EXTT8=
EXTT9=
EXTT10=
EXTT11=
EXTT12=
EXTT13=
EXTT14=
PLAYORDER=
